HIERARCHY
ROOT Hips
{
	OFFSET -0.786334 87.576500 1.096030
	CHANNELS 6 Xposition Yposition Zposition Zrotation Yrotation Xrotation 
	JOINT Spine
	{
		OFFSET 0.000000 9.923500 -1.227300
		CHANNELS 3 Zrotation Yrotation Xrotation
		JOINT Spine1
		{
			OFFSET -0.000100 11.645400 -1.422300
			CHANNELS 3 Zrotation Yrotation Xrotation
			JOINT Spine2
			{
				OFFSET 0.000100 13.360200 -1.626500
				CHANNELS 3 Zrotation Yrotation Xrotation
				JOINT Neck
				{
					OFFSET 0.000000 15.032500 0.792900
					CHANNELS 3 Zrotation Yrotation Xrotation
					JOINT Head
					{
						OFFSET 0.000000 10.321800 3.142400
						CHANNELS 3 Zrotation Yrotation Xrotation
						JOINT HeadTop_End
						{
							OFFSET 0.000200 18.474700 6.636400
							CHANNELS 3 Zrotation Yrotation Xrotation
							End Site
							{
								OFFSET 0.000000 0.000000 0.000000
							}
						}
						JOINT LeftEye
						{
							OFFSET 2.947900 7.681700 9.120700
							CHANNELS 3 Zrotation Yrotation Xrotation
							End Site
							{
								OFFSET 0.000000 0.000000 0.000000
							}
						}
						JOINT RightEye
						{
							OFFSET -2.944500 7.681700 9.120500
							CHANNELS 3 Zrotation Yrotation Xrotation
							End Site
							{
								OFFSET 0.000000 0.000000 0.000000
							}
						}
					}
				}
				JOINT LeftShoulder
				{
					OFFSET 6.105800 9.110400 0.705600
					CHANNELS 3 Zrotation Yrotation Xrotation
					JOINT LeftArm
					{
						OFFSET 12.655000 -0.265900 -2.600900
						CHANNELS 3 Zrotation Yrotation Xrotation
						JOINT LeftForeArm
						{
							OFFSET 27.404700 0.000000 0.000000
							CHANNELS 3 Zrotation Yrotation Xrotation
							JOINT LeftHand
							{
								OFFSET 27.614500 0.000000 0.000000
								CHANNELS 3 Zrotation Yrotation Xrotation
								JOINT LeftHandMiddle1
								{
									OFFSET 12.775500 0.000000 0.000000
									CHANNELS 3 Zrotation Yrotation Xrotation
									JOINT LeftHandMiddle2
									{
										OFFSET 3.614000 0.000000 0.000000
										CHANNELS 3 Zrotation Yrotation Xrotation
										JOINT LeftHandMiddle3
										{
											OFFSET 3.459800 0.000000 0.000000
											CHANNELS 3 Zrotation Yrotation Xrotation
											End Site
											{
												OFFSET 0.000000 0.000000 0.000000
											}
										}
									}
								}
								JOINT LeftHandThumb1
								{
									OFFSET 3.788800 -2.167000 3.003100
									CHANNELS 3 Zrotation Yrotation Xrotation
									JOINT LeftHandThumb2
									{
										OFFSET 3.675400 -2.122000 2.122000
										CHANNELS 3 Zrotation Yrotation Xrotation
										JOINT LeftHandThumb3
										{
											OFFSET 3.394400 -1.959700 1.959800
											CHANNELS 3 Zrotation Yrotation Xrotation
											End Site
											{
												OFFSET 0.000000 0.000000 0.000000
											}
										}
									}
								}
								JOINT LeftHandIndex1
								{
									OFFSET 12.266600 -0.231700 2.822100
									CHANNELS 3 Zrotation Yrotation Xrotation
									JOINT LeftHandIndex2
									{
										OFFSET 3.892000 0.000000 0.000000
										CHANNELS 3 Zrotation Yrotation Xrotation
										JOINT LeftHandIndex3
										{
											OFFSET 3.415200 0.000000 0.000000
											CHANNELS 3 Zrotation Yrotation Xrotation
											End Site
											{
												OFFSET 0.000000 0.000000 0.000000
											}
										}
									}
								}
								JOINT LeftHandRing1
								{
									OFFSET 12.147000 0.009900 -2.216600
									CHANNELS 3 Zrotation Yrotation Xrotation
									JOINT LeftHandRing2
									{
										OFFSET 3.601200 0.000000 0.000000
										CHANNELS 3 Zrotation Yrotation Xrotation
										JOINT LeftHandRing3
										{
											OFFSET 3.307300 0.000000 0.000000
											CHANNELS 3 Zrotation Yrotation Xrotation
											End Site
											{
												OFFSET 0.000000 0.000000 0.000000
											}
										}
									}
								}
								JOINT LeftHandPinky1
								{
									OFFSET 10.908200 -0.226400 -4.725800
									CHANNELS 3 Zrotation Yrotation Xrotation
									JOINT LeftHandPinky2
									{
										OFFSET 4.136700 0.000000 0.000000
										CHANNELS 3 Zrotation Yrotation Xrotation
										JOINT LeftHandPinky3
										{
											OFFSET 2.594800 0.000000 0.000000
											CHANNELS 3 Zrotation Yrotation Xrotation
											End Site
											{
												OFFSET 0.000000 0.000000 0.000000
											}
										}
									}
								}
							}
						}
					}
				}
				JOINT RightShoulder
				{
					OFFSET -6.105700 9.110500 0.705600
					CHANNELS 3 Zrotation Yrotation Xrotation
					JOINT RightArm
					{
						OFFSET -12.655000 -0.266000 -2.600900
						CHANNELS 3 Zrotation Yrotation Xrotation
						JOINT RightForeArm
						{
							OFFSET -27.404700 0.000000 0.000000
							CHANNELS 3 Zrotation Yrotation Xrotation
							JOINT RightHand
							{
								OFFSET -27.614500 0.000000 0.000000
								CHANNELS 3 Zrotation Yrotation Xrotation
								JOINT RightHandMiddle1
								{
									OFFSET -12.775500 0.000000 0.000000
									CHANNELS 3 Zrotation Yrotation Xrotation
									JOINT RightHandMiddle2
									{
										OFFSET -3.614000 0.000000 0.000000
										CHANNELS 3 Zrotation Yrotation Xrotation
										JOINT RightHandMiddle3
										{
											OFFSET -3.459800 0.000000 0.000000
											CHANNELS 3 Zrotation Yrotation Xrotation
											End Site
											{
												OFFSET 0.000000 0.000000 0.000000
											}
										}
									}
								}
								JOINT RightHandThumb1
								{
									OFFSET -3.788800 -2.167000 3.003100
									CHANNELS 3 Zrotation Yrotation Xrotation
									JOINT RightHandThumb2
									{
										OFFSET -3.675400 -2.122000 2.122000
										CHANNELS 3 Zrotation Yrotation Xrotation
										JOINT RightHandThumb3
										{
											OFFSET -3.394400 -1.959700 1.959800
											CHANNELS 3 Zrotation Yrotation Xrotation
											End Site
											{
												OFFSET 0.000000 0.000000 0.000000
											}
										}
									}
								}
								JOINT RightHandIndex1
								{
									OFFSET -12.266600 -0.231700 2.822100
									CHANNELS 3 Zrotation Yrotation Xrotation
									JOINT RightHandIndex2
									{
										OFFSET -3.892000 0.000000 0.000000
										CHANNELS 3 Zrotation Yrotation Xrotation
										JOINT RightHandIndex3
										{
											OFFSET -3.415200 0.000000 0.000000
											CHANNELS 3 Zrotation Yrotation Xrotation
											End Site
											{
												OFFSET 0.000000 0.000000 0.000000
											}
										}
									}
								}
								JOINT RightHandRing1
								{
									OFFSET -12.147000 0.009900 -2.216600
									CHANNELS 3 Zrotation Yrotation Xrotation
									JOINT RightHandRing2
									{
										OFFSET -3.601200 0.000000 0.000000
										CHANNELS 3 Zrotation Yrotation Xrotation
										JOINT RightHandRing3
										{
											OFFSET -3.307300 0.000000 0.000000
											CHANNELS 3 Zrotation Yrotation Xrotation
											End Site
											{
												OFFSET 0.000000 0.000000 0.000000
											}
										}
									}
								}
								JOINT RightHandPinky1
								{
									OFFSET -10.908200 -0.226400 -4.725800
									CHANNELS 3 Zrotation Yrotation Xrotation
									JOINT RightHandPinky2
									{
										OFFSET -4.136700 0.000000 0.000000
										CHANNELS 3 Zrotation Yrotation Xrotation
										JOINT RightHandPinky3
										{
											OFFSET -2.594800 0.000000 0.000000
											CHANNELS 3 Zrotation Yrotation Xrotation
											End Site
											{
												OFFSET 0.000000 0.000000 0.000000
											}
										}
									}
								}
							}
						}
					}
				}
			}
		}
	}
	JOINT RightUpLeg
	{
		OFFSET -9.124500 -6.656400 -0.055400
		CHANNELS 3 Zrotation Yrotation Xrotation
		JOINT RightLeg
		{
			OFFSET -0.244700 -40.595400 -0.514500
			CHANNELS 3 Zrotation Yrotation Xrotation
			JOINT RightFoot
			{
				OFFSET 0.244700 -42.047900 -2.060200
				CHANNELS 3 Zrotation Yrotation Xrotation
				JOINT RightToeBase
				{
					OFFSET -0.373400 -10.492200 12.640700
					CHANNELS 3 Zrotation Yrotation Xrotation
					End Site
					{
						OFFSET 0.000000 0.000000 0.000000
					}
				}
			}
		}
	}
	JOINT LeftUpLeg
	{
		OFFSET 9.124500 -6.656400 -0.055400
		CHANNELS 3 Zrotation Yrotation Xrotation
		JOINT LeftLeg
		{
			OFFSET 0.244700 -40.595400 0.000000
			CHANNELS 3 Zrotation Yrotation Xrotation
			JOINT LeftFoot
			{
				OFFSET -0.244700 -42.048000 -2.057600
				CHANNELS 3 Zrotation Yrotation Xrotation
				JOINT LeftToeBase
				{
					OFFSET 0.373400 -10.492200 12.640700
					CHANNELS 3 Zrotation Yrotation Xrotation
					End Site
					{
						OFFSET 0.000000 0.000000 0.000000
					}
				}
			}
		}
	}
}
MOTION
Frames: 5
Frame Time: 0.016667
-0.786334 87.576500 -304.061970 13.921985 -16.377812 12.164796 8.324324 -1.463694 12.163029 3.207858 -2.162680 8.852906 3.205431 -2.277808 8.822196 3.040226 -12.363096 -0.877002 42.118150 -53.626578 -43.925343 0.000000 0.000000 0.000000 0.000000 0.000000 0.000000 0.000000 0.000000 0.000000 -3.789150 -12.447505 1.879986 -42.036837 -21.109997 -8.452660 -0.000007 -46.761500 0.000004 6.767423 -14.065583 -28.631922 -29.577442 4.972691 -1.871055 -45.400902 4.171190 -1.745515 -26.357400 2.603633 -0.609749 -13.800963 13.560492 -3.899940 37.992764 -6.036392 16.643043 14.268471 22.101282 10.173406 -13.506158 3.678393 -0.650849 -29.370120 2.875792 -0.753786 -1.668227 0.170829 -0.002492 -41.143673 5.667114 -2.947067 -35.094165 3.370028 -1.065893 -34.736489 3.340106 -1.044955 -48.078763 5.974626 -3.651270 -37.776656 3.590236 -1.228742 -46.062093 4.218209 -1.793891 16.567800 10.974155 3.369751 46.942617 -1.253635 0.282621 -0.000005 62.222700 0.000004 -12.992310 28.643018 20.353684 7.254601 -2.858366 -0.277752 25.653991 -2.018575 -0.459648 10.325102 -0.835955 -0.075544 15.057726 -10.033115 -6.002850 -41.089486 0.174018 19.145492 -21.587523 -21.399378 15.588745 -10.979391 -1.343078 0.396378 28.943628 -2.256194 -0.582383 5.142177 -0.418064 -0.018768 20.604008 -3.791598 -1.055541 22.722777 -1.801154 -0.361950 20.933750 -1.666086 -0.307814 27.430161 -4.191958 -1.531288 24.212689 -1.912311 -0.410214 32.517256 -2.505786 -0.730885 -4.424331 7.185516 -60.150323 -5.677317 8.245631 60.362082 1.804296 -8.027581 -18.116491 0.000000 -0.000006 -1.012160 5.340274 23.477541 -49.759090 2.349027 13.403962 52.735586 -11.829999 16.397351 11.203098 -5.797197 0.012391 -3.679860 
-2.143120 88.498200 -305.415319 13.987204 -15.512995 11.328979 7.203747 -2.000422 11.608673 2.625511 -2.435119 8.591437 2.615628 -2.542261 8.561259 2.975683 -12.301379 -0.258494 41.789128 -54.000966 -42.654843 0.000000 0.000000 -0.000000 0.000000 0.000000 -0.000000 0.000000 0.000000 -0.000000 -1.876665 -13.664756 1.420629 -39.678444 -22.130647 -7.830759 0.000005 -48.751400 -0.000006 5.067680 -14.591254 -27.885393 -29.756697 4.985080 -1.886599 -45.579944 4.183975 -1.758568 -26.535946 2.619988 -0.617886 -13.800961 13.560492 -3.899930 37.992764 -6.036392 16.643043 14.268471 22.101282 10.173406 -13.856680 3.710154 -0.673443 -29.548682 2.891674 -0.762767 -1.846310 0.189065 -0.003048 -41.323400 5.676162 -2.964850 -35.272963 3.384944 -1.076408 -34.915272 3.355072 -1.055389 -48.258657 5.981458 -3.670008 -37.955470 3.604628 -1.239963 -46.241162 4.230852 -1.807086 15.021265 10.022936 3.031945 46.218657 -2.828810 3.992223 0.000027 64.928000 0.000012 -12.455663 28.135213 21.703701 7.673564 -2.890301 -0.298743 26.072768 -2.049210 -0.474526 10.743440 -0.869447 -0.081749 15.057725 -10.033115 -6.002840 -41.089492 0.174001 19.145492 -21.587523 -21.399378 15.588745 -10.561207 -1.379989 0.386453 29.362491 -2.285925 -0.598967 5.560513 -0.451955 -0.021953 21.023846 -3.817839 -1.083395 23.141399 -1.832521 -0.375216 21.352384 -1.697844 -0.320105 27.850334 -4.214719 -1.562096 24.631489 -1.943307 -0.424303 32.936337 -2.534434 -0.749324 -3.103161 6.697632 -58.058072 -5.900022 8.072389 57.151826 0.714213 -8.036182 -15.944583 -0.000001 -0.000002 -0.491513 4.206617 23.592683 -48.370178 2.738051 13.860351 55.965450 -11.546162 14.285013 10.778675 -5.870397 -0.055087 -6.845883 
-3.634460 89.602700 -306.774660 13.959137 -14.375180 10.712165 6.115608 -2.707874 10.931356 2.071713 -2.862949 8.141701 2.055316 -2.948607 8.114065 3.157548 -12.065571 0.357942 41.506487 -54.209521 -41.050199 -0.000000 0.000000 0.000000 -0.000000 0.000000 0.000000 -0.000000 0.000000 0.000000 0.790718 -14.698508 0.914638 -36.455435 -23.264897 -7.448688 0.000010 -50.794000 -0.000010 2.983364 -15.137581 -27.153535 -30.265327 5.019962 -1.930949 -46.087889 4.220034 -1.795780 -27.042229 2.666153 -0.641242 -13.800961 13.560492 -3.899930 37.992767 -6.036382 16.643043 14.268475 22.101281 10.173417 -14.851344 3.799445 -0.738582 -30.055299 2.936572 -0.788526 -2.351571 0.240787 -0.004957 -41.833137 5.701487 -3.015361 -35.779955 3.427032 -1.106559 -35.422220 3.397382 -1.085248 -48.768964 6.000531 -3.723259 -38.462690 3.645314 -1.272044 -46.749184 4.266466 -1.844704 13.189481 8.658585 2.623187 44.972524 -4.520628 7.437157 -0.000082 71.577000 -0.000065 -11.817902 27.563254 23.039244 8.822542 -2.977112 -0.357576 27.221218 -2.132663 -0.516406 11.890679 -0.960999 -0.100089 15.057725 -10.033115 -6.002840 -41.089491 0.174004 19.145492 -21.587523 -21.399378 15.588745 -9.414587 -1.480801 0.357828 30.511363 -2.366840 -0.645600 6.707514 -0.544807 -0.031928 22.174933 -3.888744 -1.160763 24.289616 -1.918000 -0.412793 22.500354 -1.784466 -0.354984 29.002563 -4.275918 -1.647397 25.779822 -2.027794 -0.464087 34.085606 -2.612285 -0.800916 -1.707834 6.093952 -55.679529 -6.218007 7.855977 53.139348 -0.195997 -8.043069 -13.548577 0.000001 0.000008 0.084521 2.498414 23.599330 -46.754062 3.429331 13.744788 58.580511 -12.776931 12.931660 10.132554 -4.622720 -0.014592 -9.685560 
-5.144910 90.793700 -308.140910 13.804011 -13.192717 10.276445 5.176903 -3.676847 10.190199 1.645303 -3.494289 7.619650 1.622058 -3.558282 7.597012 3.504720 -11.858156 1.052544 41.131351 -54.268406 -39.095106 0.000000 0.000000 -0.000000 0.000000 0.000000 -0.000000 0.000000 0.000000 -0.000000 3.690950 -15.430587 0.478887 -33.080148 -24.376592 -7.684853 0.000012 -52.657400 -0.000014 0.467031 -15.723356 -26.297439 -31.059416 5.073661 -2.000813 -46.881013 4.275658 -1.854533 -27.832712 2.737868 -0.678508 -13.800961 13.560492 -3.899930 37.992764 -6.036392 16.643043 14.268475 22.101281 10.173417 -16.404402 3.936595 -0.843343 -30.846208 3.006205 -0.829543 -3.140329 0.321467 -0.008808 -42.629119 5.740123 -3.094692 -36.571623 3.492253 -1.154314 -36.213820 3.462875 -1.132608 -49.565738 6.029366 -3.806759 -39.254769 3.708194 -1.322830 -47.542430 4.321432 -1.904105 11.611825 7.012503 2.241758 43.249696 -6.349845 10.749927 -0.000036 78.906000 -0.000029 -11.070801 27.059784 24.246029 10.539500 -3.104575 -0.448664 28.937414 -2.255764 -0.582131 13.604905 -1.097057 -0.130859 15.057725 -10.033115 -6.002840 -41.089494 0.173997 19.145492 -21.587523 -21.399378 15.588745 -7.701137 -1.630326 0.311303 32.228057 -2.485955 -0.718296 8.421370 -0.683095 -0.050293 23.895247 -3.991719 -1.278973 26.005342 -2.044281 -0.472118 24.215795 -1.912531 -0.410331 30.724575 -4.364178 -1.777124 27.495682 -2.152479 -0.526678 35.802909 -2.726648 -0.880904 -0.187389 5.350380 -53.097577 -6.591145 7.639264 48.401611 -1.078803 -8.014913 -10.967642 -0.000001 -0.000008 0.549097 0.948939 23.592653 -45.020600 3.930259 13.648458 60.413131 -13.567556 12.892160 10.317526 -3.986154 0.010907 -11.723900 
-6.743790 92.145400 -309.376720 13.506594 -12.192491 9.980296 4.281124 -4.636618 9.491648 1.260911 -4.227168 7.055100 1.309242 -4.302052 7.038000 3.970566 -11.679197 1.783129 40.440630 -54.000006 -36.631221 0.000000 0.000000 -0.000000 0.000000 0.000000 -0.000000 0.000000 0.000000 -0.000000 6.330943 -15.955283 0.085187 -29.207918 -25.420314 -8.321315 0.000001 -54.596300 -0.000009 -2.704035 -16.355945 -25.378230 -32.095377 5.142205 -2.093028 -47.915516 4.346966 -1.932301 -28.863782 2.830582 -0.728587 -13.800958 13.560492 -3.899920 37.992764 -6.036392 16.643043 14.268490 22.101380 10.173413 -18.430561 4.111084 -0.985545 -31.877674 3.096182 -0.884425 -4.169016 0.426629 -0.015527 -43.667188 5.788867 -3.198950 -37.604185 3.576304 -1.217962 -37.246294 3.547319 -1.195731 -50.604928 6.065211 -3.916226 -40.287801 3.789177 -1.390370 -48.576990 4.391849 -1.982704 9.843269 5.557125 1.842131 41.000893 -8.053394 14.160623 0.000095 86.055300 0.000137 -10.542156 26.492606 25.453838 12.662699 -3.258271 -0.566503 31.059351 -2.405107 -0.668419 15.724250 -1.263904 -0.174536 15.057726 -10.033115 -6.002850 -41.089484 0.174024 19.145492 -21.587523 -21.399378 15.588745 -5.582636 -1.813173 0.247647 34.350711 -2.630096 -0.813041 10.540172 -0.853172 -0.078681 26.022466 -4.114094 -1.429344 28.126617 -2.197849 -0.550621 26.336769 -2.068466 -0.483992 32.853766 -4.467825 -1.941081 29.617390 -2.303970 -0.609172 37.926406 -2.864608 -0.984494 1.578466 4.043546 -50.130759 -6.529312 7.524022 42.907142 -2.088586 -7.218706 -8.588281 -0.000001 -0.000002 1.467270 -0.025329 23.349554 -42.419509 4.049276 13.675382 60.540540 -16.249547 13.092953 11.277464 -1.522250 0.007881 -14.922300 
